<svg width="35" height="28" viewBox="0 0 35 28" fill="none" xmlns="http://www.w3.org/2000/svg">
<path d="M11.3335 22.8333V4.77778L28.0002 2V20.0556" stroke="white" stroke-width="2" stroke-linecap="round" stroke-linejoin="round"/>
<path d="M7.16667 26.9998C9.46785 26.9998 11.3333 25.1344 11.3333 22.8332C11.3333 20.532 9.46785 18.6665 7.16667 18.6665C4.86548 18.6665 3 20.532 3 22.8332C3 25.1344 4.86548 26.9998 7.16667 26.9998Z" stroke="white" stroke-width="2" stroke-linecap="round" stroke-linejoin="round"/>
<path d="M23.8332 24.222C26.1344 24.222 27.9998 22.3565 27.9998 20.0553C27.9998 17.7542 26.1344 15.8887 23.8332 15.8887C21.532 15.8887 19.6665 17.7542 19.6665 20.0553C19.6665 22.3565 21.532 24.222 23.8332 24.222Z" stroke="white" stroke-width="2" stroke-linecap="round" stroke-linejoin="round"/>
</svg>
