<svg width="87" height="60" viewBox="0 0 87 60" fill="none" xmlns="http://www.w3.org/2000/svg">
<path d="M22.826 12.8H64.426V48.8H22.826V12.8Z" fill="#292929"/>
<path fill-rule="evenodd" clip-rule="evenodd" d="M76.8025 1.83529C80.4731 2.82353 83.3672 5.71765 84.3554 9.38824C86.1907 16.0941 86.1201 30.0706 86.1201 30.0706C86.1201 30.0706 86.1201 43.9765 84.3554 50.6824C83.3672 54.3529 80.4731 57.2471 76.8025 58.2353C70.0966 60 43.2731 60 43.2731 60C43.2731 60 16.5201 60 9.74367 58.1647C6.07308 57.1765 3.17897 54.2823 2.19073 50.6118C0.426025 43.9765 0.426025 30 0.426025 30C0.426025 30 0.426025 16.0941 2.19073 9.38824C3.17897 5.71765 6.14367 2.75294 9.74367 1.76471C16.4496 0 43.2731 0 43.2731 0C43.2731 0 70.0966 0 76.8025 1.83529ZM34.7319 17.1529L57.0378 30L34.7319 42.8471V17.1529Z" fill="white"/>
</svg>
